PathFileType	4	(X/Y/Z)	C:\Users\Basilio\Documents\Thesis Gigler\squatting_fais\c3dfiles\019\SLS_back_pre1\markers_experimental.trc
DataRate	CameraRate	NumFrames	NumMarkers	Units	OrigDataRate	OrigDataStartFrame	OrigNumFrames
200.000000	200.000000	4	59	mm	200.000000	540	1442
Frame#	Time	LBHD			RBHD			C7			T10			CLAV			LSHO			LUUPA			LMUPA			LDUPA			LLEP			LMEP			LRAD			LUL			LRFIN			RSHO			RUPA1			RMUPA			RDUPA			RLEP			RMEP			RRAD			RUL			RUFIN			LASI			RASI			USACR			LSACR			RSACR			LTHI1			LTHI2			LTHI3			LTHI4			LLFC			LTIB1			LTIB2			LTIB3			LTIB4			LLMAL			LMMAL			LHEE			LMT1			LMT2			LMT5			RTHI2			RTHI4			RLFC			RTIB1			RTIB2			RTIB3			RTIB4			RLMAL			RMMAL			RHEE			RMT1			RMT2			RMT5			FHD			RTHI			RTHI3			
		X1	Y1	Z1	X2	Y2	Z2	X3	Y3	Z3	X4	Y4	Z4	X5	Y5	Z5	X6	Y6	Z6	X7	Y7	Z7	X8	Y8	Z8	X9	Y9	Z9	X10	Y10	Z10	X11	Y11	Z11	X12	Y12	Z12	X13	Y13	Z13	X14	Y14	Z14	X15	Y15	Z15	X16	Y16	Z16	X17	Y17	Z17	X18	Y18	Z18	X19	Y19	Z19	X20	Y20	Z20	X21	Y21	Z21	X22	Y22	Z22	X23	Y23	Z23	X24	Y24	Z24	X25	Y25	Z25	X26	Y26	Z26	X27	Y27	Z27	X28	Y28	Z28	X29	Y29	Z29	X30	Y30	Z30	X31	Y31	Z31	X32	Y32	Z32	X33	Y33	Z33	X34	Y34	Z34	X35	Y35	Z35	X36	Y36	Z36	X37	Y37	Z37	X38	Y38	Z38	X39	Y39	Z39	X40	Y40	Z40	X41	Y41	Z41	X42	Y42	Z42	X43	Y43	Z43	X44	Y44	Z44	X45	Y45	Z45	X46	Y46	Z46	X47	Y47	Z47	X48	Y48	Z48	X49	Y49	Z49	X50	Y50	Z50	X51	Y51	Z51	X52	Y52	Z52	X53	Y53	Z53	X54	Y54	Z54	X55	Y55	Z55	X56	Y56	Z56	X57	Y57	Z57	X58	Y58	Z58	X59	Y59	Z59	

541	2.7	-238.2635650634766	1579.854370117188	-783.049987792969	-242.0511016845704	1571.744995117188	-643.3160400390626	-302.3598327636719	1419.378051757813	-710.6358032226564	-416.0073242187501	1159.918212890625	-712.4908447265626	-170.9429779052735	1345.104858398438	-715.5470581054689	-221.2575378417969	1400.48046875	-853.613220214844	-106.4533996582032	1341.7138671875	-909.7644653320315	-81.14174652099611	1335.506103515625	-867.9174804687502	-42.07346725463868	1324.254150390625	-912.5486450195315	19.70749473571778	1273.815307617188	-939.6721801757815	6.177706718444826	1219.914794921875	-917.835144042969	260.4928894042969	1261.992553710938	-862.805603027344	261.4728698730469	1215.996948242188	-910.2369384765627	336.0713806152344	1267.864135742188	-864.5102539062502	-204.9852600097657	1398.316040039063	-584.9537353515626	-100.6641693115235	1298.693603515625	-486.0135192871095	-71.09001922607423	1323.501220703125	-521.6077880859376	-36.31117248535157	1281.164184570313	-494.6922912597657	38.67518997192384	1259.52587890625	-508.098846435547	19.26139259338379	1208.971069335938	-525.7099609375001	276.2939147949219	1272.3134765625	-585.6376953125001	287.4495239257813	1221.001953125	-542.3082885742189	362.0197753906251	1273.857666015625	-574.8400878906251	-353.0851745605469	924.673767089844	-839.2358398437502	-341.6464843750001	911.2654418945315	-636.1511840820314	-470.5801696777345	1037.910522460938	-721.1312255859376	-488.3782958984376	1012.028442382813	-750.0451049804689	-484.0555725097657	1008.158874511719	-692.1702270507814	-417.1827087402345	689.7008056640626	-933.9221801757815	-373.2421264648438	616.4149169921876	-941.6572875976565	-328.8811035156251	620.8657836914064	-923.3437500000002	-395.7867736816407	559.6069335937501	-937.7508544921877	-403.0752258300782	476.1387023925782	-928.9840087890627	-495.3662414550782	369.3795471191407	-896.593688964844	-553.3911132812501	413.2949218750001	-957.275085449219	-547.5086059570314	379.5309753417969	-932.113708496094	-625.4261474609376	360.9043579101563	-897.0823974609377	-768.3164062500002	400.0432434082032	-931.3064575195315	-755.2850952148439	389.6360168457032	-846.5085449218752	-817.6488037109377	456.249481201172	-884.1008911132815	-796.0087890625002	241.880599975586	-846.9039306640627	-804.608337402344	239.6197814941407	-889.0762329101565	-836.9046020507815	274.4584960937501	-940.5659179687502	-306.9943237304688	709.2481079101564	-576.2807617187501	-290.9713439941407	630.9727172851564	-578.8399658203126	-260.4000854492188	480.5564575195314	-627.2467651367189	-251.6317138671876	309.3565673828126	-709.2975463867189	-318.0979614257813	236.4902954101563	-658.2374267578126	-289.0698852539063	231.7066192626954	-695.1949462890626	-311.2819824218751	200.9099731445313	-739.6765136718751	-386.7958374023439	126.8903274536133	-697.7146606445314	-372.3178100585938	138.3333282470703	-773.5472412109377	-459.0300598144532	107.3297576904297	-751.5861206054689	-260.0722656250001	57.96837234497072	-784.6909790039065	-254.3049621582032	59.42313385009767	-739.0598144531251	-293.0309448242188	47.35837173461915	-683.7398071289064	-106.8798751831055	1597.38623046875	-640.2161254882814	-365.2716674804688	738.3156127929689	-562.7698364257814	-286.5939025878907	729.3092041015626	-595.8302001953126	
542	2.705	-237.6671447753907	1578.533569335938	-782.9470214843752	-241.2867584228516	1570.4326171875	-643.2549438476564	-301.6457214355469	1417.941284179688	-710.5581054687501	-415.8737182617189	1158.905395507813	-712.5851440429689	-170.7660217285157	1343.508422851563	-715.5432739257814	-220.604232788086	1399.092041015625	-853.5319824218752	-105.8409500122071	1340.527709960938	-909.712097167969	-80.20035552978517	1334.315307617188	-867.7119750976565	-41.30406570434571	1322.866455078125	-912.2998046875002	20.57858276367188	1272.570190429688	-939.5291137695315	6.82630777359009	1218.826538085938	-917.8474121093752	260.8646545410157	1261.11181640625	-862.646667480469	262.0686340332032	1214.923095703125	-909.9958496093752	336.3865051269532	1266.968994140625	-864.2874145507815	-204.3799285888672	1397.068969726563	-584.9733276367189	-100.1754989624024	1297.559448242188	-486.0202026367189	-70.63662719726564	1322.510864257813	-521.5836181640626	-35.78412246704102	1280.024536132813	-494.6298828125001	39.24602890014649	1258.700805664063	-508.0693359375001	19.85502243041993	1207.881469726563	-525.8155517578126	276.6987304687501	1271.578369140625	-585.6971435546876	287.8597106933594	1220.256103515625	-542.3291625976564	362.2615661621094	1273.245727539063	-575.1816406250001	-353.2390136718751	923.4812011718752	-839.4030761718752	-341.9768676757813	910.212585449219	-636.2007446289064	-470.5252990722657	1037.278076171875	-721.1900634765626	-488.6607971191407	1011.150817871094	-750.1060180664064	-484.1556396484376	1007.022705078125	-692.1201782226564	-418.0332031250001	688.7498168945314	-934.3015136718752	-374.1874389648438	615.5665283203126	-941.909851074219	-329.6286926269532	619.7004394531251	-923.5916137695315	-396.684539794922	558.6660156250001	-938.0518188476565	-404.0391540527345	475.1283569335939	-929.3321533203127	-496.8430175781251	368.3763732910157	-896.758239746094	-554.3947753906251	412.7368164062501	-957.5640869140627	-548.5093383789064	378.8011779785157	-932.364685058594	-626.4108886718751	360.2161560058594	-897.302429199219	-769.4077148437502	399.7322082519532	-931.5791015625002	-756.3118286132814	389.3331604003907	-846.7949829101565	-818.559020996094	456.0465087890626	-884.3712158203127	-797.4373168945315	242.1638641357422	-846.4171142578127	-806.2482910156252	240.0346984863282	-888.7246093750002	-838.2276000976565	274.3551635742188	-940.7219848632815	-307.0906066894532	708.5466918945314	-576.5166015625001	-290.7354431152344	630.4024047851564	-578.8780517578126	-259.5547485351563	480.0646362304689	-627.1259765625001	-251.2199859619141	309.0197448730469	-709.3536376953126	-317.7648315429688	236.2355651855469	-658.2724609375001	-288.8766479492188	231.5458984375001	-695.2462158203126	-311.0216674804688	200.7071838378907	-739.7402343750001	-386.7719726562501	126.8675308227539	-697.7316894531251	-372.2268981933594	138.2856140136719	-773.6377563476565	-458.9663391113282	107.3245086669922	-751.6500244140626	-260.1645202636719	57.89760589599611	-784.7520141601565	-254.3489990234376	59.36067199707033	-739.0464477539064	-293.0512390136719	47.40864181518555	-683.6635742187501	-106.1774368286133	1595.822631835938	-640.0473632812501	-365.4594116210938	737.6492919921876	-562.9519042968751	-286.6864929199219	728.7575683593751	-595.8425903320314	
543	2.71	-236.9708709716797	1577.16650390625	-782.7903442382815	-240.6782684326172	1568.825561523438	-643.3513793945314	-297.5582275390626	1415.580200195313	-707.5001220703126	-415.717498779297	1157.8369140625	-712.7097167968751	-170.4075927734375	1341.720092773438	-715.5277099609376	-219.8758087158204	1397.810546875	-853.388122558594	-105.2400588989258	1339.274047851563	-909.5522460937502	-79.5622024536133	1333.145874023438	-867.6207275390627	-40.51091384887696	1321.727294921875	-912.150817871094	21.32468032836914	1271.37353515625	-939.3743286132815	7.572616577148439	1217.606201171875	-917.820983886719	261.6970520019532	1259.802001953125	-862.2881469726565	262.8346862792969	1213.928344726563	-909.7576904296877	336.9840087890626	1265.940063476563	-863.8000488281252	-204.4992980957032	1395.447265625	-585.5189208984376	-99.71730804443362	1296.314819335938	-486.2189941406251	-70.07610321044923	1321.230712890625	-521.5131225585939	-35.39472961425782	1278.97607421875	-494.5627746582032	39.6167106628418	1257.592163085938	-508.0390014648439	20.39342689514161	1206.8369140625	-525.7038574218751	277.3242492675782	1270.767822265625	-585.7125854492189	288.4322204589844	1219.488159179688	-542.3346557617189	363.2015380859376	1272.431762695313	-575.1804809570314	-353.6455078125001	922.385437011719	-839.4459228515627	-342.2136840820313	908.963073730469	-636.2838745117189	-470.684295654297	1036.260986328125	-721.1962890625001	-489.8819580078126	1010.787170410156	-750.0953369140626	-484.2013244628907	1006.366149902344	-692.2911376953126	-419.0328979492189	687.8158569335939	-934.7070312500002	-374.9908142089844	614.4895019531251	-942.1483154296877	-330.4830322265626	618.6884765625001	-923.9283447265627	-397.5029296875001	557.6002807617189	-938.282409667969	-404.7280883789064	474.0278930664064	-929.6184082031252	-497.8378906250001	367.5383911132813	-896.6895751953127	-555.4407958984376	411.9966430664064	-957.8151855468752	-549.6636962890626	378.1614990234376	-932.6951904296877	-627.5179443359376	359.6032409667969	-897.6907348632815	-770.4473266601565	399.553680419922	-931.8330078125002	-757.3114013671876	388.9578247070314	-847.0406494140627	-819.4660644531252	455.7850341796876	-884.5996093750002	-805.660339355469	245.7727203369141	-849.9600830078127	-807.3815917968752	239.5857696533204	-888.969177246094	-839.5151977539065	274.1498107910157	-940.9248046875002	-307.1977844238282	707.9033203125001	-576.5125122070314	-290.5363159179688	629.9332275390626	-578.8690795898439	-258.8338317871094	479.6132202148439	-627.1199951171876	-250.7677612304688	308.7885437011719	-709.4290771484376	-317.5560913085938	236.1226196289063	-658.3631591796876	-288.5672607421876	231.2883453369141	-695.3004150390626	-310.8142395019532	200.4591064453126	-739.8416137695314	-386.6836547851564	126.8665084838867	-697.8387451171876	-372.1925964355469	138.2693481445313	-773.7424926757815	-459.0309143066407	107.3174209594727	-751.6854858398439	-259.7921447753907	57.45881271362306	-784.6828613281252	-254.3615722656251	59.34093475341798	-739.0551757812501	-292.9990539550782	47.39448928833009	-683.7048339843751	-105.5357894897461	1594.310180664063	-640.0004882812501	-365.5615844726563	736.8546752929689	-563.0054321289064	-286.6601867675782	728.2811279296876	-595.9155273437501	
544	2.715	-235.8186035156251	1575.598999023438	-782.8002929687502	-240.0595703125001	1567.48779296875	-643.2474975585939	-300.5915527343751	1415.40283203125	-710.6615600585939	-415.6051635742189	1156.825073242188	-712.7326049804689	-169.875228881836	1340.330078125	-715.4824829101564	-219.1605072021485	1396.500854492188	-853.3793945312502	-104.5215530395508	1338.022094726563	-909.4499511718752	-79.20619964599611	1331.638427734375	-867.5176391601565	-39.91831207275391	1320.389404296875	-912.018005371094	22.01620864868164	1270.241577148438	-939.1921997070315	8.226052284240724	1216.407958984375	-917.824645996094	262.5099182128907	1258.535034179688	-861.8677368164065	263.6611022949219	1212.830078125	-909.4866333007815	337.9536132812501	1264.673950195313	-863.313171386719	-203.8685913085938	1394.325439453125	-585.0594482421876	-99.1842956542969	1295.286010742188	-486.0704345703126	-69.45796966552736	1319.960327148438	-521.5061645507814	-34.86386108398438	1277.904052734375	-494.505096435547	40.00746154785157	1256.518798828125	-508.1319274902345	20.95388221740723	1205.845703125	-525.4785766601564	277.5461120605469	1270.02001953125	-585.7866210937501	289.0030822753907	1218.650024414063	-542.2229614257814	363.9768066406251	1271.70458984375	-575.2592163085939	-354.1994018554688	921.326354980469	-839.5698852539065	-342.5029296875001	907.8362426757815	-636.4609985351564	-470.9831542968751	1034.916015625	-721.3506469726564	-489.9858703613282	1009.820739746094	-750.3194580078126	-484.551483154297	1005.415771484375	-692.3658447265626	-419.666229248047	686.7998657226564	-934.9030761718752	-375.5299682617188	613.2671508789064	-942.3316650390627	-331.2098388671876	617.5780639648439	-924.1235961914065	-398.216766357422	556.4997558593751	-938.5230712890627	-405.734100341797	473.0069580078126	-929.905212402344	-498.5729064941407	366.9847412109376	-897.3963012695315	-556.2503051757814	411.2933959960939	-958.0477294921877	-550.7476196289064	377.4002685546876	-933.038269042969	-628.5213623046876	358.9996337890626	-897.916442871094	-771.5049438476565	399.2270507812501	-932.133239746094	-758.1575317382814	388.4723205566407	-847.2942504882815	-820.2958984375002	455.4831542968751	-884.8562622070315	-806.3523559570315	245.3887329101563	-850.0942993164065	-808.6917724609377	239.287338256836	-889.0999145507815	-840.7683105468752	273.9015197753907	-941.1689453125002	-307.2937622070313	707.4116821289064	-576.7979736328126	-290.4149475097657	629.4022216796876	-579.0650634765626	-258.2310791015626	479.361053466797	-627.2601318359376	-250.3869171142579	308.4184875488282	-709.5661621093751	-317.2192687988282	235.9357910156251	-658.5032958984376	-288.3443603515626	230.9999542236329	-695.4370727539064	-310.6199951171876	200.2590026855469	-739.9221801757814	-386.6166076660157	126.8669052124024	-697.9436645507814	-372.1173400878907	138.1761169433594	-773.8092041015627	-459.018524169922	107.3316802978516	-751.6948242187501	-259.7646179199219	57.33911132812501	-784.6656494140627	-254.4178314208985	59.32650375366212	-739.0592041015626	-293.0078125000001	47.40191650390626	-683.7073364257814	-104.7991638183594	1592.744140625	-639.7124633789064	-365.7235107421876	736.0725097656251	-563.0930175781251	-286.7959899902344	727.7395019531251	-595.9462280273439	
